<svg id="svg" version="1.1" xmlns="http://www.w3.org/2000/svg" xmlns:xlink="http://www.w3.org/1999/xlink" width="400" height="400" viewBox="0, 0, 400,400"><g id="svgg"><path id="path0" d="M194.000 180.754 C 187.325 182.913,182.622 187.708,180.645 194.373 C 180.116 196.155,180.000 198.653,180.000 208.273 L 180.000 220.000 200.000 220.000 L 220.000 220.000 220.000 251.727 C 220.000 286.303,219.928 285.112,222.296 289.789 C 223.590 292.343,227.657 296.410,230.211 297.704 C 234.888 300.072,233.697 300.000,268.273 300.000 L 300.000 300.000 300.000 288.273 C 300.000 273.279,299.397 270.923,294.237 265.763 C 289.077 260.603,286.721 260.000,271.727 260.000 L 260.000 260.000 260.000 240.000 L 260.000 220.000 271.727 220.000 C 286.721 220.000,289.077 219.397,294.237 214.237 C 299.397 209.077,300.000 206.721,300.000 191.727 L 300.000 180.000 248.100 180.022 C 199.484 180.042,196.061 180.088,194.000 180.754 " stroke="none" fill="#fca404" fill-rule="evenodd"></path><path id="path1" d="M114.000 100.754 C 107.325 102.913,102.622 107.708,100.645 114.373 C 100.060 116.343,100.000 125.081,100.000 208.273 L 100.000 300.000 111.727 300.000 C 124.377 300.000,125.548 299.851,129.789 297.704 C 132.343 296.410,136.410 292.343,137.704 289.789 C 140.158 284.942,140.000 290.321,140.000 211.727 L 140.000 140.000 200.000 140.000 L 260.000 140.000 260.000 159.800 L 260.000 179.600 280.000 179.600 L 300.000 179.600 300.000 148.073 C 300.000 120.244,299.924 116.290,299.355 114.373 C 297.348 107.607,292.393 102.652,285.627 100.645 C 282.111 99.601,117.240 99.707,114.000 100.754 M174.000 240.754 C 152.142 247.821,157.062 280.000,180.000 280.000 C 203.132 280.000,207.818 247.228,185.627 240.645 C 182.681 239.770,176.874 239.825,174.000 240.754 " stroke="none" fill="#2c4c4c" fill-rule="evenodd"></path><path id="path2" d="M269.900 179.900 C 275.455 179.962,284.545 179.962,290.100 179.900 C 295.655 179.837,291.110 179.786,280.000 179.786 C 268.890 179.786,264.345 179.837,269.900 179.900 " stroke="none" fill="#dc940c" fill-rule="evenodd"></path><path id="path3" d="" stroke="none" fill="#647828" fill-rule="evenodd"></path><path id="path4" d="" stroke="none" fill="#2c7c28" fill-rule="evenodd"></path></g></svg>